<svg version="1.1" xmlns="http://www.w3.org/2000/svg" xmlns:xlink="http://www.w3.org/1999/xlink" viewBox="0 0 1151.8 1710.1" xml:space="preserve">
	<path d="M1118.7,1353.8c-22-68-89.7-111.2-159-101c-72.1,10.6-125.2,70.2-126.5,141.9c-1.2,70.3,49.4,131.3,120.3,144.9
		c68.7,13.2,139-27.3,163.4-93.8c2.4-6.7,8.2-20.8,8.9-31.1c1-16,0.8-30.3-1.8-42.3C1122,1363.7,1120.6,1359.8,1118.7,1353.8z
		 M978.6,1478c-44.5-0.2-80.8-35.8-81.6-80c-0.8-44.9,36-82.1,81.5-82.3c45.6-0.2,82.9,36.2,82.9,81.1
		C1061.4,1441.6,1024.2,1478.1,978.6,1478z"/>
</svg>
